<svg xmlns="http://www.w3.org/2000/svg" viewBox="0 0 500 140" preserveAspectRatio="xMidYMid slice">
  <path d="M306.6,59.7 L306.6,10.7 L366.7,-49.4 L405.6,-10.5 L447.7,-52.6 L447.7,-142.6 L520.4,-142.6 L520.4,-60.2 L492.1,-31.9 L492.1,45.5" fill="none" stroke="#f87171" stroke-width="4" stroke-linecap="round" stroke-linejoin="round" opacity="0.85"/>
  <path d="M441.9,67.5 L441.9,-3.4 L498.1,-59.7 L559.4,1.6 L559.4,95.7 L610.8,95.7 L639.7,124.7 L703.7,60.7 L733.4,31.0" fill="none" stroke="#60a5fa" stroke-width="4" stroke-linecap="round" stroke-linejoin="round" opacity="0.85"/>
  <path d="M211.4,158.5 L237.1,184.1 L237.1,268.1 L144.5,268.1 L87.3,268.1 L87.3,191.4 L201.9,191.4 L201.9,121.7" fill="none" stroke="#4ade80" stroke-width="4" stroke-linecap="round" stroke-linejoin="round" opacity="0.85"/>
  <path d="M303.9,34.6 L253.7,-15.6 L172.7,65.4 L117.1,9.8 L117.1,-80.9 L41.2,-156.9 L41.2,-257.6 L6.4,-292.5 L-31.0,-255.1" fill="none" stroke="#c084fc" stroke-width="4" stroke-linecap="round" stroke-linejoin="round" opacity="0.85"/>
  <path d="M336.6,37.2 L411.5,112.1 L478.0,112.1 L523.6,66.4 L523.6,-19.4 L471.9,-19.4 L471.9,-69.1 L407.1,-133.9 L407.1,-195.8 L488.0,-276.8" fill="none" stroke="#fb923c" stroke-width="4" stroke-linecap="round" stroke-linejoin="round" opacity="0.85"/>
  <path d="M61.8,4.2 L-4.8,4.2 L-68.4,-59.4 L-68.4,-166.0 L-9.1,-225.4 L-9.1,-279.2 L33.8,-322.1 L68.1,-287.7 L36.3,-255.9" fill="none" stroke="#f472b6" stroke-width="4" stroke-linecap="round" stroke-linejoin="round" opacity="0.85"/>
  <path d="M293.4,11.5 L228.4,76.6 L157.7,147.2 L53.3,147.2 L-22.0,222.6 L-106.5,222.6 L-106.5,156.4 L-159.1,103.8 L-225.9,170.6" fill="none" stroke="#facc15" stroke-width="4" stroke-linecap="round" stroke-linejoin="round" opacity="0.85"/>
  <path d="M64.8,71.3 L-16.0,-9.5 L-88.1,62.6 L-43.5,107.2 L46.0,107.2 L106.1,47.0 L106.1,-0.1 L135.7,-29.7 L56.9,-108.5 L121.7,-173.3 L167.8,-173.3" fill="none" stroke="#2dd4bf" stroke-width="4" stroke-linecap="round" stroke-linejoin="round" opacity="0.85"/>
  <path d="M217.0,83.8 L147.8,14.6 L71.4,14.6 L20.7,-36.1 L20.7,-95.7 L-19.2,-135.6 L-106.0,-135.6 L-131.0,-160.6 L-171.5,-160.6 L-171.5,-235.7 L-199.5,-263.7" fill="none" stroke="#22d3ee" stroke-width="4" stroke-linecap="round" stroke-linejoin="round" opacity="0.85"/>
  <path d="M363.5,82.8 L458.6,82.8 L458.6,3.9 L409.4,3.9 L381.3,-24.2 L292.8,-24.2 L292.8,12.6 L252.0,53.4 L288.3,89.7 L367.0,168.3 L470.8,168.3" fill="none" stroke="#a3e635" stroke-width="4" stroke-linecap="round" stroke-linejoin="round" opacity="0.85"/>
  <path d="M353.6,83.7 L353.6,9.2 L263.6,9.2 L263.6,121.5 L263.6,217.9 L326.1,280.4 L251.7,354.8 L251.7,422.9 L323.8,495.0" fill="none" stroke="#f87171" stroke-width="4" stroke-linecap="round" stroke-linejoin="round" opacity="0.85"/>
  <path d="M357.3,0.2 L357.3,74.1 L425.6,142.5 L460.9,107.2 L405.3,51.7 L405.3,-23.3 L336.6,-23.3 L271.3,42.0 L222.9,42.0 L176.9,-4.0 L113.5,59.4" fill="none" stroke="#60a5fa" stroke-width="4" stroke-linecap="round" stroke-linejoin="round" opacity="0.85"/>
  <path d="M121.4,110.0 L121.4,195.1 L121.4,301.1 L61.1,361.4 L3.8,361.4 L-50.3,415.5 L-50.3,459.2 L58.2,459.2 L84.8,485.8 L84.8,539.2 L84.8,620.7" fill="none" stroke="#4ade80" stroke-width="4" stroke-linecap="round" stroke-linejoin="round" opacity="0.85"/>
  <path d="M333.5,-23.6 L287.5,-69.6 L212.1,-69.6 L143.7,-138.0 L45.3,-138.0 L10.6,-103.4 L10.6,-14.4 L49.0,24.0 L132.2,24.0 L132.2,132.8 L159.8,160.3" fill="none" stroke="#c084fc" stroke-width="4" stroke-linecap="round" stroke-linejoin="round" opacity="0.85"/>
  <path d="M295.0,26.8 L387.0,26.8 L387.0,130.8 L325.9,191.9 L222.7,191.9 L141.6,110.9 L141.6,35.2 L230.6,35.2 L302.2,-36.5" fill="none" stroke="#fb923c" stroke-width="4" stroke-linecap="round" stroke-linejoin="round" opacity="0.85"/>
  <path d="M260.1,122.4 L221.1,161.5 L117.2,161.5 L78.2,122.5 L78.2,34.2 L10.3,-33.7 L-17.5,-5.9 L34.5,46.1 L34.5,117.1" fill="none" stroke="#f472b6" stroke-width="4" stroke-linecap="round" stroke-linejoin="round" opacity="0.85"/>
  <path d="M366.6,-29.3 L321.0,-74.9 L280.5,-34.3 L331.4,16.5 L406.0,16.5 L473.4,83.9 L556.0,83.9 L657.6,83.9" fill="none" stroke="#facc15" stroke-width="4" stroke-linecap="round" stroke-linejoin="round" opacity="0.85"/>
  <path d="M479.9,-17.6 L390.3,-17.6 L390.3,85.6 L503.7,85.6 L603.6,85.6 L703.5,85.6 L784.4,166.5 L784.4,271.5 L845.6,271.5" fill="none" stroke="#2dd4bf" stroke-width="4" stroke-linecap="round" stroke-linejoin="round" opacity="0.85"/>
  <path d="M486.9,101.1 L486.9,166.1 L440.9,166.1 L395.0,212.0 L442.9,259.9 L468.5,234.3 L429.4,195.1 L378.2,246.3" fill="none" stroke="#22d3ee" stroke-width="4" stroke-linecap="round" stroke-linejoin="round" opacity="0.85"/>
  <path d="M323.5,33.0 L242.4,114.1 L242.4,155.1 L312.1,155.1 L312.1,88.7 L425.2,88.7 L490.0,23.9 L429.6,-36.5 L404.9,-11.7 L297.1,-11.7" fill="none" stroke="#a3e635" stroke-width="4" stroke-linecap="round" stroke-linejoin="round" opacity="0.85"/>
</svg>
